#Comment line ignore any data following # character 
#Hierarchical Translation and Rotation (.htr) file 
[Header]	
#Header keywords are followed by a single value 
FileType HTR		#Single word string
DataType HTRS		#Translation followed by rotation and scale data
FileVersion 1		#integer
NumSegments 25		#integer
NumFrames 4		#integer
DataFrameRate 30		#integer, data frame rate in this file
EulerRotationOrder ZYX
CalibrationUnits mm
RotationUnits Degrees
GlobalAxisofGravity Y
BoneLengthAxis Y
ScaleFactor 1.00
[SegmentNames&Hierarchy]
#CHILD	PARENT
BN_Tick_Root GLOBAL
BN_Torso BN_Tick_Root
BN_L_Leg_Front01 BN_Torso
BN_L_Leg_Rear01 BN_Torso
BN_MetalTop BN_Torso
BN_Neck BN_Torso
BN_R_Leg_Front01 BN_Torso
BN_R_Leg_Rear01 BN_Torso
BN_Sack BN_Torso
BN_L_Leg_Front02 BN_L_Leg_Front01
BN_L_Leg_Front03 BN_L_Leg_Front02
BN_L_Leg_Rear02 BN_L_Leg_Rear01
BN_L_Leg_Rear03 BN_L_Leg_Rear02
BN_Head BN_Neck
BN_Needle BN_Head
BN_R_Leg_Front02 BN_R_Leg_Front01
BN_R_Leg_Front03 BN_R_Leg_Front02
BN_R_Leg_Rear02 BN_R_Leg_Rear01
BN_R_Leg_Rear03 BN_R_Leg_Rear02
BN_SackDef01 BN_Sack
BN_SackDef02 BN_Sack
BN_SackDef03 BN_Sack
BN_SackDef04 BN_Sack
BN_SackDef05 BN_Sack
BN_SackDef06 BN_Sack
[BasePosition]
#SegmentName Tx, Ty, Tz, Rx, Ry, Rz, BoneLength
BN_Tick_Root 0.000000 0.000000 0.000000 -90.000000 0.000000 0.000000 10.000000 
BN_Torso 0.000000 0.000000 0.000000 0.000000 0.000000 0.000000 10.000000 
BN_L_Leg_Front01 0.000000 0.000000 0.000000 0.000000 0.000000 0.000000 10.000000 
BN_L_Leg_Rear01 0.000000 0.000000 0.000000 0.000000 0.000000 0.000000 10.000000 
BN_MetalTop 0.000000 0.000000 0.000000 0.000000 0.000000 0.000000 10.000000 
BN_Neck 0.000000 0.000000 0.000000 0.000000 0.000000 0.000000 10.000000 
BN_R_Leg_Front01 0.000000 0.000000 0.000000 0.000000 0.000000 0.000000 10.000000 
BN_R_Leg_Rear01 0.000000 0.000000 0.000000 0.000000 0.000000 0.000000 10.000000 
BN_Sack 0.000000 0.000000 0.000000 0.000000 0.000000 0.000000 10.000000 
BN_L_Leg_Front02 0.000000 0.000000 0.000000 0.000000 0.000000 0.000000 10.000000 
BN_L_Leg_Front03 0.000000 0.000000 0.000000 0.000000 0.000000 0.000000 10.000000 
BN_L_Leg_Rear02 0.000000 0.000000 0.000000 0.000000 0.000000 0.000000 10.000000 
BN_L_Leg_Rear03 0.000000 0.000000 0.000000 0.000000 0.000000 0.000000 10.000000 
BN_Head 0.000000 0.000000 0.000000 0.000000 0.000000 0.000000 10.000000 
BN_Needle 0.000000 0.000000 0.000000 0.000000 0.000000 0.000000 10.000000 
BN_R_Leg_Front02 0.000000 0.000000 0.000000 0.000000 0.000000 0.000000 10.000000 
BN_R_Leg_Front03 0.000000 0.000000 0.000000 0.000000 0.000000 0.000000 10.000000 
BN_R_Leg_Rear02 0.000000 0.000000 0.000000 0.000000 0.000000 0.000000 10.000000 
BN_R_Leg_Rear03 0.000000 0.000000 0.000000 0.000000 0.000000 0.000000 10.000000 
BN_SackDef01 0.000000 0.000000 0.000000 0.000000 0.000000 0.000000 10.000000 
BN_SackDef02 0.000000 0.000000 0.000000 0.000000 0.000000 0.000000 10.000000 
BN_SackDef03 0.000000 0.000000 0.000000 0.000000 0.000000 0.000000 10.000000 
BN_SackDef04 0.000000 0.000000 0.000000 0.000000 0.000000 0.000000 10.000000 
BN_SackDef05 0.000000 0.000000 0.000000 0.000000 0.000000 0.000000 10.000000 
BN_SackDef06 0.000000 0.000000 0.000000 0.000000 0.000000 0.000000 10.000000 
#Beginning of Data. Separated by tabs
#Fr	Tx	Ty	Tz	Rx	Ry	Rz	SF
[BN_Tick_Root]
563 0.000000 0.000000 0.000000 0.000000 0.000000 -0.000020 0.000000
564 0.000000 0.000000 0.000000 0.000000 0.000000 -0.000020 0.000000
565 0.000000 0.000000 0.000000 0.000000 0.000000 -0.000020 0.000000
566 0.000000 0.000000 0.000000 0.000000 0.000000 -0.000020 0.000000
[BN_Torso]
563 1502.137817 -999.984924 350.867371 19.371962 0.131332 141.303299 1838.340454
564 1504.064209 -998.064087 349.572205 24.136929 0.133477 141.303055 1838.625000
565 1508.645142 -993.490112 346.029480 31.009462 0.132810 141.301422 1839.230591
566 1514.109619 -988.034729 340.739563 34.514168 0.134140 141.303329 1839.794556
[BN_L_Leg_Front01]
563 -68.477791 10.734189 -26.804373 -120.497765 63.067318 125.286324 74.316254
564 -68.477791 10.734189 -26.804373 -120.497765 63.067318 125.286324 74.316254
565 -68.477791 10.734189 -26.804373 -120.497765 63.067303 125.286308 74.316254
566 -68.477791 10.734189 -26.804373 -120.497765 63.067318 125.286324 74.316254
[BN_L_Leg_Rear01]
563 -72.133743 -73.994843 -18.268616 146.400146 53.651188 -122.533401 104.939293
564 -72.133743 -73.994843 -18.268616 146.400146 53.651188 -122.533401 104.939293
565 -72.133743 -73.994843 -18.268616 146.400146 53.651188 -122.533401 104.939293
566 -72.133743 -73.994843 -18.268616 146.400146 53.651188 -122.533401 104.939293
[BN_MetalTop]
563 0.000008 13.737477 26.403606 76.460045 -35.971893 -94.621407 29.763546
564 0.000008 13.737477 26.403606 76.460342 -35.580811 -94.510323 29.763546
565 0.000008 13.737477 26.403606 76.497536 -34.957832 -94.427383 29.763546
566 0.000008 13.737477 26.403606 76.535538 -34.334827 -94.344643 29.763546
[BN_Neck]
563 0.000014 95.233284 10.002091 -89.999672 -65.297531 89.999657 95.757088
564 0.000014 95.233284 10.002091 -89.999672 -65.297531 89.999657 95.757088
565 0.000014 95.233284 10.002091 -89.999672 -65.297531 89.999657 95.757088
566 0.000014 95.233284 10.002091 -89.999672 -65.297531 89.999657 95.757088
[BN_R_Leg_Front01]
563 68.477768 10.734107 -26.804314 35.505959 47.782810 -40.891872 74.316193
564 68.477768 10.734107 -26.804314 35.304508 47.524487 -41.164268 74.316193
565 68.477768 10.734107 -26.804314 35.105850 47.265530 -41.433979 74.316193
566 68.477768 10.734107 -26.804314 34.910004 47.006016 -41.700985 74.316193
[BN_R_Leg_Rear01]
563 72.133751 -73.994873 -18.268644 -146.396255 53.648884 -57.465195 104.939331
564 72.133751 -73.994873 -18.268644 -146.396271 53.648869 -57.465195 104.939331
565 72.133751 -73.994873 -18.268644 -146.396271 53.648876 -57.465195 104.939331
566 72.133751 -73.994873 -18.268644 -146.396271 53.648876 -57.465195 104.939331
[BN_Sack]
563 -0.000000 -78.024918 33.657791 94.600616 -6.911099 -94.349655 84.974907
564 -0.000000 -78.024918 33.657791 94.328285 -9.656720 -93.024284 84.974907
565 -0.000000 -78.024918 33.657791 94.111237 -9.516507 -93.915756 84.974907
566 -0.000000 -78.024918 33.657791 94.110306 -8.789516 -95.636871 84.974907
[BN_L_Leg_Front02]
563 142.805023 -0.000015 -0.000104 37.783440 3.515404 -30.114613 142.805023
564 142.805023 -0.000015 -0.000104 40.334190 -3.942127 -25.797409 142.805023
565 142.805023 -0.000015 -0.000104 43.275120 -13.958852 -19.802624 142.805023
566 142.805023 -0.000015 -0.000104 45.123142 -16.707415 -17.012341 142.805023
[BN_L_Leg_Front03]
563 124.143021 -0.000045 0.000007 0.352799 -0.441183 81.852150 124.143021
564 124.143021 -0.000045 0.000007 0.354657 -0.437147 77.886742 124.143021
565 124.143021 -0.000045 0.000007 0.352418 -0.427753 71.388008 124.143021
566 124.143021 -0.000045 0.000007 0.353117 -0.422685 69.361740 124.143021
[BN_L_Leg_Rear02]
563 139.939041 0.000075 -0.000022 -12.890777 35.357239 69.976654 139.939041
564 139.939041 0.000075 -0.000022 -3.733352 37.713970 77.728790 139.939041
565 139.939041 0.000075 -0.000022 9.768948 38.609108 89.375557 139.939041
566 139.939041 0.000075 -0.000022 16.860836 37.213604 96.426216 139.939041
[BN_L_Leg_Rear03]
563 142.839615 0.000179 -0.000060 0.000048 -0.002347 -92.362160 142.839615
564 142.839615 0.000179 -0.000060 0.000064 -0.002346 -93.134041 142.839615
565 142.839615 0.000179 -0.000060 0.000077 -0.002346 -93.774940 142.839615
566 142.839615 0.000179 -0.000060 0.000117 -0.002344 -95.737366 142.839615
[BN_Head]
563 57.062447 -0.000030 0.000000 10.653695 17.542675 67.177406 57.062447
564 57.062447 -0.000030 0.000000 12.766802 17.352600 71.488022 57.062447
565 57.062447 -0.000030 0.000000 15.673135 17.182922 77.567574 57.062447
566 57.062447 -0.000030 0.000000 19.517817 18.912563 76.144997 57.062447
[BN_Needle]
563 33.915253 69.677582 -0.000153 0.000003 0.000030 87.896805 77.493286
564 33.915253 69.677582 -0.000153 0.000003 0.000030 87.896805 77.493286
565 33.915253 69.677582 -0.000153 0.000003 0.000030 87.896805 77.493286
566 33.915253 69.677582 -0.000153 0.000003 0.000030 87.896805 77.493286
[BN_R_Leg_Front02]
563 142.804947 -0.000060 0.000060 31.763796 86.423355 103.370384 142.804947
564 142.804947 -0.000060 0.000060 -31.583946 86.909843 39.135223 142.804947
565 142.804947 -0.000060 0.000060 -76.864853 82.655670 -6.676797 142.804947
566 142.804947 -0.000060 0.000060 -80.194572 81.194214 -10.120965 142.804947
[BN_R_Leg_Front03]
563 124.143005 -0.000060 -0.000156 -0.352828 -0.426310 -73.206238 124.143005
564 124.143005 -0.000060 -0.000156 -0.353602 -0.435213 -76.690941 124.143005
565 124.143005 -0.000060 -0.000156 -0.355341 -0.442366 -80.684448 124.143005
566 124.143005 -0.000060 -0.000156 -0.351483 -0.444278 -82.514023 124.143005
[BN_R_Leg_Rear02]
563 139.939011 -0.000149 0.000015 153.309982 80.134605 71.106079 139.939011
564 139.939011 -0.000149 0.000015 -158.088715 82.943283 118.722374 139.939011
565 139.939011 -0.000149 0.000015 -105.413528 77.384834 170.030579 139.939011
566 139.939011 -0.000149 0.000015 -95.059410 71.752380 179.707245 139.939011
[BN_R_Leg_Rear03]
563 142.839417 0.000075 0.000119 0.002347 0.000032 88.417847 142.839417
564 142.839417 0.000075 0.000119 0.002347 0.000056 87.243324 142.839417
565 142.839417 0.000075 0.000119 0.002345 0.000098 85.216202 142.839417
566 142.839417 0.000075 0.000119 0.002346 0.000075 86.336205 142.839417
[BN_SackDef01]
563 249.782364 -3.760703 42.949516 -128.408218 -44.374973 -11.740845 253.475906
564 249.782364 -3.760703 42.949516 -128.408218 -44.374973 -11.740845 253.475906
565 249.782364 -3.760703 42.949516 -128.408218 -44.374973 -11.740845 253.475906
566 249.782364 -3.760703 42.949516 -128.408218 -44.374973 -11.740845 253.475906
[BN_SackDef02]
563 138.789871 -62.131645 45.674290 32.077126 -27.375721 -88.781525 158.773773
564 138.789871 -62.131645 45.674290 32.077126 -27.375721 -88.781525 158.773773
565 138.789871 -62.131645 45.674290 32.077126 -27.375721 -88.781525 158.773773
566 138.789871 -62.131645 45.674290 32.077126 -27.375721 -88.781525 158.773773
[BN_SackDef03]
563 249.782394 -3.760623 -42.949532 18.144459 44.375008 -11.740894 253.475937
564 249.782394 -3.760623 -42.949532 18.144459 44.375008 -11.740894 253.475937
565 249.782394 -3.760623 -42.949532 18.144459 44.375008 -11.740894 253.475937
566 249.782394 -3.760623 -42.949532 18.144459 44.375008 -11.740894 253.475937
[BN_SackDef04]
563 138.789963 -62.131496 -45.674435 146.059982 27.375723 -88.781555 158.773834
564 138.789963 -62.131496 -45.674435 146.059982 27.375723 -88.781555 158.773834
565 138.789963 -62.131496 -45.674435 146.059982 27.375723 -88.781555 158.773834
566 138.789963 -62.131496 -45.674435 146.059982 27.375723 -88.781555 158.773834
[BN_SackDef05]
563 118.790199 46.167221 -63.831329 0.155741 51.314110 90.605110 142.537582
564 118.790199 46.167221 -63.831329 0.155741 51.314110 90.605110 142.537582
565 118.790199 46.167221 -63.831329 0.155741 51.314110 90.605110 142.537582
566 118.790199 46.167221 -63.831329 0.155741 51.314110 90.605110 142.537582
[BN_SackDef06]
563 118.790276 46.167259 63.831173 152.058487 -51.314072 90.605019 142.537598
564 118.790276 46.167259 63.831173 152.058487 -51.314072 90.605019 142.537598
565 118.790276 46.167259 63.831173 152.058487 -51.314072 90.605019 142.537598
566 118.790276 46.167259 63.831173 152.058487 -51.314072 90.605019 142.537598
